<mxfile host="app.diagrams.net" modified="2023-06-12T05:11:06.343Z" agent="Mozilla/5.0 (Windows NT 10.0; Win64; x64) AppleWebKit/537.36 (KHTML, like Gecko) Chrome/114.0.0.0 Safari/537.36" etag="0pTNpq7Mt4DkoyVXIHW5" version="21.1.8" type="github">
  <diagram name="페이지-1" id="r1D6LGoSQLgpk3pzB0GB">
    <mxGraphModel dx="1436" dy="874" grid="1" gridSize="10" guides="1" tooltips="1" connect="1" arrows="1" fold="1" page="1" pageScale="1" pageWidth="1100" pageHeight="850" math="0" shadow="0">
      <root>
        <mxCell id="0" />
        <mxCell id="1" parent="0" />
        <mxCell id="UV4WdFO7w0hpjEOUpgrM-9" value="" style="rounded=1;whiteSpace=wrap;html=1;fillColor=none;" vertex="1" parent="1">
          <mxGeometry x="100" y="110" width="500" height="210" as="geometry" />
        </mxCell>
        <mxCell id="UV4WdFO7w0hpjEOUpgrM-27" value="" style="group" vertex="1" connectable="0" parent="1">
          <mxGeometry x="378" y="130" width="188" height="146" as="geometry" />
        </mxCell>
        <mxCell id="UV4WdFO7w0hpjEOUpgrM-21" value="" style="group" vertex="1" connectable="0" parent="UV4WdFO7w0hpjEOUpgrM-27">
          <mxGeometry x="7" y="26" width="180" height="120" as="geometry" />
        </mxCell>
        <mxCell id="UV4WdFO7w0hpjEOUpgrM-14" value="" style="shape=parallelogram;perimeter=parallelogramPerimeter;whiteSpace=wrap;html=1;fixedSize=1;" vertex="1" parent="UV4WdFO7w0hpjEOUpgrM-21">
          <mxGeometry width="120" height="60" as="geometry" />
        </mxCell>
        <mxCell id="UV4WdFO7w0hpjEOUpgrM-15" value="" style="shape=parallelogram;perimeter=parallelogramPerimeter;whiteSpace=wrap;html=1;fixedSize=1;" vertex="1" parent="UV4WdFO7w0hpjEOUpgrM-21">
          <mxGeometry x="10" y="10" width="120" height="60" as="geometry" />
        </mxCell>
        <mxCell id="UV4WdFO7w0hpjEOUpgrM-16" value="" style="shape=parallelogram;perimeter=parallelogramPerimeter;whiteSpace=wrap;html=1;fixedSize=1;" vertex="1" parent="UV4WdFO7w0hpjEOUpgrM-21">
          <mxGeometry x="20" y="20" width="120" height="60" as="geometry" />
        </mxCell>
        <mxCell id="UV4WdFO7w0hpjEOUpgrM-17" value="" style="shape=parallelogram;perimeter=parallelogramPerimeter;whiteSpace=wrap;html=1;fixedSize=1;" vertex="1" parent="UV4WdFO7w0hpjEOUpgrM-21">
          <mxGeometry x="30" y="30" width="120" height="60" as="geometry" />
        </mxCell>
        <mxCell id="UV4WdFO7w0hpjEOUpgrM-18" value="" style="shape=parallelogram;perimeter=parallelogramPerimeter;whiteSpace=wrap;html=1;fixedSize=1;" vertex="1" parent="UV4WdFO7w0hpjEOUpgrM-21">
          <mxGeometry x="40" y="40" width="120" height="60" as="geometry" />
        </mxCell>
        <mxCell id="UV4WdFO7w0hpjEOUpgrM-19" value="" style="shape=parallelogram;perimeter=parallelogramPerimeter;whiteSpace=wrap;html=1;fixedSize=1;" vertex="1" parent="UV4WdFO7w0hpjEOUpgrM-21">
          <mxGeometry x="50" y="50" width="120" height="60" as="geometry" />
        </mxCell>
        <mxCell id="UV4WdFO7w0hpjEOUpgrM-20" value="" style="shape=parallelogram;perimeter=parallelogramPerimeter;whiteSpace=wrap;html=1;fixedSize=1;" vertex="1" parent="UV4WdFO7w0hpjEOUpgrM-21">
          <mxGeometry x="60" y="60" width="120" height="60" as="geometry" />
        </mxCell>
        <mxCell id="UV4WdFO7w0hpjEOUpgrM-24" value="티켓" style="text;html=1;align=center;verticalAlign=middle;resizable=0;points=[];autosize=1;strokeColor=none;fillColor=none;" vertex="1" parent="UV4WdFO7w0hpjEOUpgrM-27">
          <mxGeometry width="50" height="30" as="geometry" />
        </mxCell>
        <mxCell id="UV4WdFO7w0hpjEOUpgrM-3" style="edgeStyle=orthogonalEdgeStyle;rounded=0;orthogonalLoop=1;jettySize=auto;html=1;exitX=0.5;exitY=0.5;exitDx=0;exitDy=0;exitPerimeter=0;" edge="1" parent="1" source="UV4WdFO7w0hpjEOUpgrM-1" target="UV4WdFO7w0hpjEOUpgrM-2">
          <mxGeometry relative="1" as="geometry" />
        </mxCell>
        <mxCell id="UV4WdFO7w0hpjEOUpgrM-4" value="상품 등록" style="edgeLabel;html=1;align=center;verticalAlign=middle;resizable=0;points=[];" vertex="1" connectable="0" parent="UV4WdFO7w0hpjEOUpgrM-3">
          <mxGeometry x="-0.1707" y="-2" relative="1" as="geometry">
            <mxPoint y="1" as="offset" />
          </mxGeometry>
        </mxCell>
        <mxCell id="UV4WdFO7w0hpjEOUpgrM-1" value="Actor" style="shape=umlActor;verticalLabelPosition=bottom;verticalAlign=top;html=1;outlineConnect=0;" vertex="1" parent="1">
          <mxGeometry x="20" y="200" width="30" height="60" as="geometry" />
        </mxCell>
        <mxCell id="UV4WdFO7w0hpjEOUpgrM-7" value="티켓 서비스" style="text;html=1;align=center;verticalAlign=middle;resizable=0;points=[];autosize=1;strokeColor=none;fillColor=none;" vertex="1" parent="1">
          <mxGeometry x="100" y="80" width="90" height="30" as="geometry" />
        </mxCell>
        <mxCell id="UV4WdFO7w0hpjEOUpgrM-10" value="" style="group" vertex="1" connectable="0" parent="1">
          <mxGeometry x="145" y="140" width="185" height="150" as="geometry" />
        </mxCell>
        <mxCell id="UV4WdFO7w0hpjEOUpgrM-2" value="" style="shape=cube;whiteSpace=wrap;html=1;boundedLbl=1;backgroundOutline=1;darkOpacity=0.05;darkOpacity2=0.1;" vertex="1" parent="UV4WdFO7w0hpjEOUpgrM-10">
          <mxGeometry x="25" y="30" width="120" height="80" as="geometry" />
        </mxCell>
        <mxCell id="UV4WdFO7w0hpjEOUpgrM-8" value="상품" style="text;html=1;align=center;verticalAlign=middle;resizable=0;points=[];autosize=1;strokeColor=none;fillColor=none;" vertex="1" parent="UV4WdFO7w0hpjEOUpgrM-10">
          <mxGeometry width="50" height="30" as="geometry" />
        </mxCell>
        <mxCell id="UV4WdFO7w0hpjEOUpgrM-22" style="edgeStyle=orthogonalEdgeStyle;rounded=0;orthogonalLoop=1;jettySize=auto;html=1;exitX=0;exitY=0;exitDx=120;exitDy=50;exitPerimeter=0;entryX=0.25;entryY=1;entryDx=0;entryDy=0;" edge="1" parent="1" source="UV4WdFO7w0hpjEOUpgrM-2" target="UV4WdFO7w0hpjEOUpgrM-15">
          <mxGeometry relative="1" as="geometry">
            <mxPoint x="330" y="260" as="sourcePoint" />
            <Array as="points">
              <mxPoint x="425" y="220" />
            </Array>
          </mxGeometry>
        </mxCell>
        <mxCell id="UV4WdFO7w0hpjEOUpgrM-23" value="티켓 생성" style="text;html=1;align=center;verticalAlign=middle;resizable=0;points=[];autosize=1;strokeColor=none;fillColor=none;" vertex="1" parent="1">
          <mxGeometry x="310" y="190" width="70" height="30" as="geometry" />
        </mxCell>
        <mxCell id="UV4WdFO7w0hpjEOUpgrM-29" style="edgeStyle=orthogonalEdgeStyle;rounded=0;orthogonalLoop=1;jettySize=auto;html=1;exitX=0.5;exitY=0.5;exitDx=0;exitDy=0;exitPerimeter=0;entryX=0.5;entryY=1;entryDx=0;entryDy=0;" edge="1" parent="1" source="UV4WdFO7w0hpjEOUpgrM-28" target="UV4WdFO7w0hpjEOUpgrM-20">
          <mxGeometry relative="1" as="geometry">
            <mxPoint x="570" y="429.9999999999998" as="targetPoint" />
          </mxGeometry>
        </mxCell>
        <mxCell id="UV4WdFO7w0hpjEOUpgrM-28" value="Actor" style="shape=umlActor;verticalLabelPosition=bottom;verticalAlign=top;html=1;outlineConnect=0;" vertex="1" parent="1">
          <mxGeometry x="490" y="376" width="30" height="60" as="geometry" />
        </mxCell>
        <mxCell id="UV4WdFO7w0hpjEOUpgrM-30" value="예매" style="text;html=1;align=center;verticalAlign=middle;resizable=0;points=[];autosize=1;strokeColor=none;fillColor=none;" vertex="1" parent="1">
          <mxGeometry x="498" y="335" width="50" height="30" as="geometry" />
        </mxCell>
      </root>
    </mxGraphModel>
  </diagram>
</mxfile>
